<svg viewBox="0 0 400 330" witdh='389' height='294' version="1.1" x="0px" y="0px" xmlns="http://www.w3.org/2000/svg" xmlns:xlink="http://www.w3.org/1999/xlink" xmlns:a="http://ns.adobe.com/AdobeSVGViewerExtensions/3.0/" xml:space="preserve"><g transform="translate(91.424987792969 20.574996948242) scale(2.313256681015 2.3132547311738) rotate(0 44.494995117188 35.664012908936)"><path d="M24.622,29.458C13.465,36.15,5.764,47.995,4.789,61.704l5.436-6.537c2.256-8.428,7.443-15.662,14.397-20.553
	v0.284v0.322v11.717l5.338,1.184V32.032v-0.285v-0.259v-1.721V16.108l-5.338,8.401V29.458z M70.955,32.362v5.701
	c5.875,5.587,9.905,13.09,11.076,21.501l4.658,5.332c0-0.082,0.006-0.163,0.006-0.245C86.695,51.536,80.533,39.869,70.955,32.362z
	 M35.511,49.352l1.403,0.312V23.619l-1.403-0.806V49.352z M33.081,48.813l1.537,0.341V22.3l-1.537-0.882V48.813z M37.803,16.113
	v8.29v4.4v0.25v0.257v20.55l0.004,0.002l1.403,0.312l0.893,0.197l1.361,0.303l1.678,0.372v-22.51v-0.248V28.04v-4.315v-2.545V0
	l-5.339,8.401V16.113z M54.646,10.124l-1.361-0.783v10.21l-0.893,1.405V8.829l-1.403-0.806v15.141v2.827v2.339v0.247v0.251v27.481
	l1.403-0.311l0.893-0.199l1.361-0.303l1.681-0.373V30.034v-0.262v-0.251v-2.48V14.763l-1.681,2.645V10.124z M46.264,23.652v4.304
	v0.247v0.247v24.134l1.537,2.307V28.503v-0.249v-0.247v-4.315v-17.5L46.264,5.31V23.652z M48.693,23.76v4.315v0.247v0.248v27.661
	l0.341,0.511l1.063-0.236V28.715v-0.25v-0.248v-2.339V7.51l-1.403-0.806V23.76z M64.175,53.383l1.403-0.312v-29.48l-1.403-0.806
	V53.383z M66.471,52.874l1.361-0.302V24.886l-1.361-0.782V52.874z M59.449,54.431l1.537-0.341V20.955l-1.537-0.883V54.431z
	 M61.879,53.893l1.403-0.312V22.273l-1.403-0.806V53.893z" fill="#585858"></path><path d="M18.265,62.128v0.3h2.229v-2.784C19.241,59.788,18.265,60.838,18.265,62.128z M21.063,59.644v2.784h2.228
	v-0.3C23.291,60.838,22.315,59.788,21.063,59.644z M18.265,65.68h2.229v-2.682h-2.229V65.68z M21.063,65.68h2.228v-2.682h-2.228
	V65.68z" fill="#585858"></path><path d="M74.662,66.767c-0.007-0.083-0.008-0.167-0.023-0.247c-0.199-1.039-1.061-1.837-2.127-1.959v2.713h2.171
	v-0.292C74.683,66.909,74.669,66.838,74.662,66.767z M69.829,66.52c-0.015,0.08-0.017,0.164-0.024,0.247
	c-0.006,0.071-0.02,0.142-0.02,0.215v0.292h2.171v-2.713c-0.366,0.042-0.702,0.172-1.001,0.355
	C70.383,65.267,69.961,65.838,69.829,66.52z M72.512,70.442h2.171V67.83h-2.171V70.442z M69.785,70.442h2.171V67.83h-2.171V70.442z" fill="#585858"></path><polygon points="73.598,52.872 70.955,53.44 67.832,54.111 66.471,54.404 65.578,54.596 64.175,54.897 
	63.282,55.089 61.879,55.39 60.986,55.583 59.449,55.913 57.769,56.274 56.327,56.584 54.646,56.945 53.285,57.238 52.393,57.43 
	50.989,57.731 50.097,57.923 49.854,57.975 49.596,58.031 49.335,58.086 49.033,58.151 48.693,58.224 48.275,58.315 47.801,58.853 
	46.264,60.598 44.587,62.502 43.142,64.142 41.577,65.917 41.577,65.917 43.142,63.793 44.587,61.83 46.264,59.551 47.801,57.463 
	48.158,56.977 47.801,56.498 46.264,54.434 45.368,53.233 44.587,53.065 43.142,52.754 41.464,52.393 40.103,52.1 39.21,51.909 
	37.807,51.608 37.803,51.607 36.914,51.416 35.511,51.114 34.618,50.922 33.081,50.592 29.959,49.92 24.622,48.774 19.379,47.647 
	24.622,54.772 29.959,62.027 33.081,66.27 33.266,66.52 33.447,66.767 33.629,67.014 34.618,68.359 35.081,68.987 36.802,71.328 
	56.16,71.328 56.137,71.319 58.148,71.319 58.301,71.319 58.381,71.223 58.546,71.024 58.587,70.974 59.803,69.508 59.803,69.508 
	60.986,68.081 61.87,67.014 61.879,67.002 62.075,66.767 62.28,66.52 63.282,65.311 64.175,64.235 65.578,62.543 66.471,61.466 
	67.832,59.824 70.955,56.059 " fill="#064ea2"></polygon><path d="M9.852,59.423l-0.293,0.339l-0.291,0.337l-4.578,5.3L0,70.832l3.58,0.065l3.492-4.13l1.906-2.254
	l0.255-0.302l0.255-0.301l10.45-12.354l-1.618-1.941L9.852,59.423z M85.075,66.767l-2.708-3.104l-0.255-0.291l-0.255-0.292
	l-7.229-8.288l-1.575,1.891l8.367,9.838l0.211,0.247l0.209,0.247l3.662,4.305l3.488-0.063L85.075,66.767z" fill="#064ea2"></path></g>
<g transform="translate(20.924987792969 266.62744289578)  scale(0.80007809449434 0.80007809449434)"><text dominant-baseline="auto" alignment-baseline="auto" font-family="OldSansBlack" font-size="36px" fill="#585858" letter-spacing="1" xml:space="preserve">Innenputz &amp; Fassaden GmbH</text></g>
<g transform="translate(157.67736255417 234.1281475536)  scale(0.87773296540013 0.87773296540013)"><text dominant-baseline="auto" alignment-baseline="auto" font-family="OldSansBlack" font-size="62px" fill="#064ea2" letter-spacing="0" xml:space="preserve">BK</text></g>
</svg>