<?xml version="1.0" encoding="UTF-8"?>
<svg xmlns="http://www.w3.org/2000/svg" xmlns:xlink="http://www.w3.org/1999/xlink" width="106px" height="80px" viewBox="0 0 105 80" version="1.1">
<g id="surface1">
<path style=" stroke:none;fill-rule:nonzero;fill:rgb(34.509804%,34.509804%,34.509804%);fill-opacity:1;" d="M 40.070312 24.144531 C 33.109375 28.355469 28.3125 35.804688 27.703125 44.4375 L 31.089844 40.324219 C 32.5 35.019531 35.734375 30.460938 40.070312 27.386719 L 40.070312 35.144531 L 43.394531 35.886719 L 43.394531 15.738281 L 40.070312 21.023438 Z M 68.957031 25.96875 L 68.957031 29.554688 C 72.621094 33.074219 75.132812 37.800781 75.867188 43.09375 L 78.769531 46.449219 C 78.769531 46.394531 78.773438 46.34375 78.773438 46.292969 C 78.773438 38.039062 74.933594 30.695312 68.957031 25.96875 Z M 46.855469 36.664062 L 47.734375 36.863281 L 47.734375 20.460938 L 46.855469 19.957031 Z M 45.339844 36.324219 L 46.304688 36.539062 L 46.304688 19.636719 L 45.339844 19.082031 Z M 48.285156 15.742188 L 48.285156 36.980469 L 48.292969 36.988281 L 49.164062 37.179688 L 49.722656 37.304688 L 50.566406 37.492188 L 51.617188 37.730469 L 51.617188 5.601562 L 48.285156 10.886719 Z M 58.789062 11.96875 L 57.945312 11.480469 L 57.945312 17.90625 L 57.382812 18.789062 L 57.382812 11.15625 L 56.507812 10.648438 L 56.507812 41.042969 L 57.382812 40.851562 L 57.945312 40.71875 L 58.789062 40.53125 L 59.839844 40.292969 L 59.839844 14.894531 L 58.789062 16.554688 Z M 53.5625 20.488281 L 53.5625 38.699219 L 54.519531 40.148438 L 54.519531 9.492188 L 53.5625 8.945312 Z M 55.078125 20.554688 L 55.078125 40.992188 L 55.289062 41.3125 L 55.957031 41.167969 L 55.957031 10.324219 L 55.078125 9.820312 Z M 64.730469 39.199219 L 65.605469 39.007812 L 65.605469 20.449219 L 64.730469 19.9375 Z M 66.164062 38.882812 L 67.011719 38.6875 L 67.011719 21.261719 L 66.164062 20.769531 Z M 61.785156 39.863281 L 62.742188 39.644531 L 62.742188 18.789062 L 61.785156 18.230469 Z M 63.300781 39.523438 L 64.175781 39.324219 L 64.175781 19.617188 L 63.300781 19.113281 Z M 63.300781 39.523438 "/>
<path style=" stroke:none;fill-rule:nonzero;fill:rgb(34.509804%,34.509804%,34.509804%);fill-opacity:1;" d="M 36.105469 44.707031 L 36.105469 44.894531 L 37.5 44.894531 L 37.5 43.144531 C 36.714844 43.230469 36.105469 43.894531 36.105469 44.707031 Z M 37.851562 43.144531 L 37.851562 44.894531 L 39.238281 44.894531 L 39.238281 44.707031 C 39.238281 43.894531 38.628906 43.230469 37.851562 43.144531 Z M 36.105469 46.945312 L 37.5 46.945312 L 37.5 45.25 L 36.105469 45.25 Z M 37.851562 46.945312 L 39.238281 46.945312 L 39.238281 45.25 L 37.851562 45.25 Z M 37.851562 46.945312 "/>
<path style=" stroke:none;fill-rule:nonzero;fill:rgb(34.509804%,34.509804%,34.509804%);fill-opacity:1;" d="M 71.269531 47.625 C 71.269531 47.574219 71.269531 47.519531 71.253906 47.46875 C 71.132812 46.8125 70.597656 46.3125 69.929688 46.238281 L 69.929688 47.945312 L 71.28125 47.945312 L 71.28125 47.761719 C 71.28125 47.710938 71.273438 47.667969 71.269531 47.625 Z M 68.253906 47.46875 C 68.246094 47.519531 68.246094 47.574219 68.242188 47.625 C 68.234375 47.667969 68.230469 47.710938 68.230469 47.761719 L 68.230469 47.945312 L 69.582031 47.945312 L 69.582031 46.238281 C 69.355469 46.261719 69.140625 46.34375 68.957031 46.460938 C 68.601562 46.679688 68.339844 47.039062 68.253906 47.46875 Z M 69.929688 49.9375 L 71.28125 49.9375 L 71.28125 48.292969 L 69.929688 48.292969 Z M 68.230469 49.9375 L 69.582031 49.9375 L 69.582031 48.292969 L 68.230469 48.292969 Z M 68.230469 49.9375 "/>
<path style=" stroke:none;fill-rule:nonzero;fill:rgb(2.352941%,30.588235%,63.529412%);fill-opacity:1;" d="M 70.609375 38.882812 L 68.957031 39.238281 L 67.011719 39.65625 L 66.164062 39.84375 L 65.605469 39.960938 L 64.730469 40.15625 L 64.175781 40.273438 L 63.300781 40.460938 L 62.742188 40.585938 L 61.785156 40.792969 L 60.734375 41.019531 L 59.839844 41.21875 L 58.789062 41.445312 L 57.945312 41.625 L 57.382812 41.75 L 56.507812 41.9375 L 55.957031 42.054688 L 55.800781 42.09375 L 55.636719 42.125 L 55.476562 42.164062 L 55.289062 42.199219 L 55.078125 42.25 L 54.816406 42.304688 L 54.519531 42.644531 L 53.5625 43.742188 L 52.519531 44.9375 L 51.617188 45.976562 L 50.640625 47.085938 L 51.617188 45.757812 L 52.519531 44.519531 L 53.5625 43.082031 L 54.519531 41.769531 L 54.742188 41.460938 L 54.519531 41.164062 L 53.5625 39.863281 L 53.003906 39.105469 L 52.519531 39 L 51.617188 38.804688 L 50.566406 38.574219 L 49.722656 38.394531 L 49.164062 38.273438 L 48.292969 38.082031 L 48.285156 38.082031 L 47.734375 37.960938 L 46.855469 37.773438 L 46.304688 37.648438 L 45.339844 37.445312 L 43.394531 37.019531 L 40.070312 36.300781 L 36.800781 35.59375 L 40.070312 40.074219 L 43.394531 44.644531 L 45.339844 47.3125 L 45.460938 47.46875 L 45.6875 47.78125 L 46.304688 48.632812 L 46.589844 49.023438 L 47.664062 50.492188 L 59.734375 50.492188 L 59.722656 50.492188 L 61.070312 50.492188 L 61.21875 50.304688 L 61.25 50.273438 L 62.007812 49.351562 L 62.742188 48.449219 L 63.292969 47.78125 L 63.300781 47.773438 L 63.425781 47.625 L 63.550781 47.46875 L 64.175781 46.710938 L 64.730469 46.03125 L 65.605469 44.96875 L 66.164062 44.289062 L 67.011719 43.257812 L 68.957031 40.886719 Z M 70.609375 38.882812 "/>
<path style=" stroke:none;fill-rule:nonzero;fill:rgb(2.352941%,30.588235%,63.529412%);fill-opacity:1;" d="M 30.859375 43.007812 L 30.675781 43.21875 L 30.496094 43.429688 L 27.640625 46.761719 L 24.714844 50.179688 L 26.945312 50.226562 L 29.128906 47.625 L 30.3125 46.207031 L 30.632812 45.824219 L 37.148438 38.050781 L 36.136719 36.832031 Z M 77.761719 47.625 L 76.070312 45.667969 L 75.917969 45.488281 L 75.753906 45.304688 L 71.25 40.085938 L 70.265625 41.28125 L 75.480469 47.46875 L 75.617188 47.625 L 75.75 47.78125 L 78.027344 50.492188 L 80.203125 50.449219 Z M 77.761719 47.625 "/>
<path style=" stroke:none;fill-rule:nonzero;fill:rgb(34.509804%,34.509804%,34.509804%);fill-opacity:1;" d="M 6.433594 67.15625 L 7.152344 67.15625 L 7.152344 72.550781 L 6.433594 72.550781 Z M 6.433594 67.15625 "/>
<path style=" stroke:none;fill-rule:nonzero;fill:rgb(34.509804%,34.509804%,34.509804%);fill-opacity:1;" d="M 11.902344 70.105469 L 11.902344 72.550781 L 11.242188 72.550781 L 11.242188 70.132812 C 11.242188 69.742188 11.167969 69.460938 11.019531 69.269531 C 10.875 69.082031 10.652344 68.980469 10.351562 68.980469 C 10 68.980469 9.71875 69.101562 9.515625 69.324219 C 9.308594 69.554688 9.203125 69.867188 9.203125 70.261719 L 9.203125 72.550781 L 8.546875 72.550781 L 8.546875 68.5 L 9.203125 68.5 L 9.203125 69.132812 C 9.367188 68.886719 9.546875 68.707031 9.761719 68.585938 C 9.972656 68.46875 10.222656 68.40625 10.503906 68.40625 C 10.960938 68.40625 11.308594 68.550781 11.546875 68.84375 C 11.78125 69.132812 11.902344 69.550781 11.902344 70.105469 Z M 11.902344 70.105469 "/>
<path style=" stroke:none;fill-rule:nonzero;fill:rgb(34.509804%,34.509804%,34.509804%);fill-opacity:1;" d="M 16.550781 70.105469 L 16.550781 72.550781 L 15.890625 72.550781 L 15.890625 70.132812 C 15.890625 69.742188 15.816406 69.460938 15.667969 69.269531 C 15.515625 69.082031 15.300781 68.980469 15 68.980469 C 14.648438 68.980469 14.367188 69.101562 14.164062 69.324219 C 13.957031 69.554688 13.851562 69.867188 13.851562 70.261719 L 13.851562 72.550781 L 13.195312 72.550781 L 13.195312 68.5 L 13.851562 68.5 L 13.851562 69.132812 C 14.007812 68.886719 14.195312 68.707031 14.410156 68.585938 C 14.621094 68.46875 14.871094 68.40625 15.152344 68.40625 C 15.609375 68.40625 15.957031 68.550781 16.195312 68.84375 C 16.429688 69.132812 16.550781 69.550781 16.550781 70.105469 Z M 16.550781 70.105469 "/>
<path style=" stroke:none;fill-rule:nonzero;fill:rgb(34.509804%,34.509804%,34.509804%);fill-opacity:1;" d="M 21.296875 70.363281 L 21.296875 70.6875 L 18.265625 70.6875 C 18.289062 71.144531 18.425781 71.5 18.667969 71.738281 C 18.917969 71.976562 19.257812 72.09375 19.695312 72.09375 C 19.949219 72.09375 20.195312 72.0625 20.425781 72.007812 C 20.667969 71.9375 20.90625 71.84375 21.136719 71.710938 L 21.136719 72.351562 C 20.898438 72.449219 20.65625 72.523438 20.410156 72.574219 C 20.160156 72.632812 19.910156 72.664062 19.65625 72.664062 C 19.015625 72.664062 18.507812 72.46875 18.132812 72.09375 C 17.761719 71.71875 17.574219 71.207031 17.574219 70.570312 C 17.574219 69.90625 17.75 69.375 18.109375 68.988281 C 18.464844 68.601562 18.941406 68.40625 19.539062 68.40625 C 20.078125 68.40625 20.507812 68.582031 20.824219 68.929688 C 21.136719 69.28125 21.296875 69.761719 21.296875 70.363281 Z M 20.632812 70.164062 C 20.625 69.800781 20.527344 69.511719 20.328125 69.300781 C 20.136719 69.082031 19.875 68.96875 19.550781 68.96875 C 19.179688 68.96875 18.886719 69.074219 18.664062 69.289062 C 18.4375 69.492188 18.3125 69.789062 18.28125 70.167969 Z M 20.632812 70.164062 "/>
<path style=" stroke:none;fill-rule:nonzero;fill:rgb(34.509804%,34.509804%,34.509804%);fill-opacity:1;" d="M 25.703125 70.105469 L 25.703125 72.550781 L 25.050781 72.550781 L 25.050781 70.132812 C 25.050781 69.742188 24.96875 69.460938 24.820312 69.269531 C 24.679688 69.082031 24.453125 68.980469 24.160156 68.980469 C 23.808594 68.980469 23.523438 69.101562 23.316406 69.324219 C 23.113281 69.554688 23.011719 69.867188 23.011719 70.261719 L 23.011719 72.550781 L 22.347656 72.550781 L 22.347656 68.5 L 23.011719 68.5 L 23.011719 69.132812 C 23.167969 68.886719 23.355469 68.707031 23.566406 68.585938 C 23.777344 68.46875 24.023438 68.40625 24.304688 68.40625 C 24.765625 68.40625 25.113281 68.550781 25.347656 68.84375 C 25.585938 69.132812 25.703125 69.550781 25.703125 70.105469 Z M 25.703125 70.105469 "/>
<path style=" stroke:none;fill-rule:nonzero;fill:rgb(34.509804%,34.509804%,34.509804%);fill-opacity:1;" d="M 27.660156 71.945312 L 27.660156 74.085938 L 26.996094 74.085938 L 26.996094 68.5 L 27.660156 68.5 L 27.660156 69.117188 C 27.796875 68.882812 27.972656 68.699219 28.175781 68.582031 C 28.394531 68.460938 28.640625 68.40625 28.933594 68.40625 C 29.417969 68.40625 29.816406 68.601562 30.121094 68.992188 C 30.425781 69.382812 30.582031 69.894531 30.582031 70.53125 C 30.582031 71.167969 30.425781 71.679688 30.121094 72.070312 C 29.816406 72.460938 29.417969 72.664062 28.933594 72.664062 C 28.640625 72.664062 28.394531 72.601562 28.175781 72.480469 C 27.972656 72.367188 27.796875 72.1875 27.660156 71.945312 Z M 29.898438 70.53125 C 29.898438 70.042969 29.796875 69.65625 29.601562 69.382812 C 29.402344 69.101562 29.128906 68.960938 28.78125 68.960938 C 28.425781 68.960938 28.152344 69.101562 27.953125 69.382812 C 27.753906 69.65625 27.660156 70.042969 27.660156 70.53125 C 27.660156 71.019531 27.753906 71.398438 27.953125 71.679688 C 28.152344 71.960938 28.425781 72.101562 28.78125 72.101562 C 29.128906 72.101562 29.402344 71.960938 29.601562 71.679688 C 29.796875 71.398438 29.898438 71.019531 29.898438 70.53125 Z M 29.898438 70.53125 "/>
<path style=" stroke:none;fill-rule:nonzero;fill:rgb(34.509804%,34.509804%,34.509804%);fill-opacity:1;" d="M 31.605469 70.949219 L 31.605469 68.5 L 32.257812 68.5 L 32.257812 70.929688 C 32.257812 71.3125 32.335938 71.601562 32.484375 71.792969 C 32.632812 71.980469 32.855469 72.074219 33.15625 72.074219 C 33.507812 72.074219 33.789062 71.960938 33.992188 71.738281 C 34.199219 71.507812 34.304688 71.195312 34.304688 70.800781 L 34.304688 68.5 L 34.960938 68.5 L 34.960938 72.550781 L 34.304688 72.550781 L 34.304688 71.929688 C 34.140625 72.175781 33.957031 72.355469 33.75 72.480469 C 33.539062 72.601562 33.289062 72.664062 33.011719 72.664062 C 32.550781 72.664062 32.203125 72.511719 31.960938 72.226562 C 31.726562 71.929688 31.605469 71.511719 31.605469 70.949219 Z M 33.265625 68.40625 Z M 33.265625 68.40625 "/>
<path style=" stroke:none;fill-rule:nonzero;fill:rgb(34.509804%,34.509804%,34.509804%);fill-opacity:1;" d="M 36.96875 67.355469 L 36.96875 68.5 L 38.324219 68.5 L 38.324219 69.023438 L 36.96875 69.023438 L 36.96875 71.21875 C 36.96875 71.550781 37.011719 71.761719 37.105469 71.855469 C 37.195312 71.949219 37.375 72 37.652344 72 L 38.324219 72 L 38.324219 72.550781 L 37.652344 72.550781 C 37.144531 72.550781 36.796875 72.457031 36.597656 72.261719 C 36.40625 72.070312 36.304688 71.726562 36.304688 71.21875 L 36.304688 69.023438 L 35.828125 69.023438 L 35.828125 68.5 L 36.304688 68.5 L 36.304688 67.355469 Z M 36.96875 67.355469 "/>
<path style=" stroke:none;fill-rule:nonzero;fill:rgb(34.509804%,34.509804%,34.509804%);fill-opacity:1;" d="M 38.910156 68.5 L 42.039062 68.5 L 42.039062 69.113281 L 39.5625 72.019531 L 42.039062 72.019531 L 42.039062 72.550781 L 38.816406 72.550781 L 38.816406 71.945312 L 41.296875 69.03125 L 38.910156 69.03125 Z M 38.910156 68.5 "/>
<path style=" stroke:none;fill-rule:nonzero;fill:rgb(34.509804%,34.509804%,34.509804%);fill-opacity:1;" d="M 46.464844 69.648438 C 46.25 69.851562 46.085938 70.039062 45.988281 70.230469 C 45.882812 70.425781 45.832031 70.632812 45.832031 70.84375 C 45.832031 71.195312 45.957031 71.488281 46.21875 71.71875 C 46.464844 71.957031 46.789062 72.070312 47.167969 72.070312 C 47.398438 72.070312 47.609375 72.039062 47.800781 71.957031 C 48 71.882812 48.1875 71.769531 48.359375 71.613281 Z M 46.96875 69.242188 L 48.789062 71.125 C 48.933594 70.914062 49.042969 70.679688 49.121094 70.4375 C 49.199219 70.195312 49.242188 69.929688 49.261719 69.65625 L 49.921875 69.65625 C 49.894531 69.976562 49.820312 70.289062 49.691406 70.601562 C 49.566406 70.914062 49.398438 71.21875 49.175781 71.523438 L 50.175781 72.550781 L 49.273438 72.550781 L 48.757812 72.019531 C 48.515625 72.238281 48.253906 72.394531 47.980469 72.5 C 47.707031 72.605469 47.417969 72.664062 47.101562 72.664062 C 46.527344 72.664062 46.0625 72.492188 45.695312 72.164062 C 45.320312 71.832031 45.140625 71.40625 45.140625 70.882812 C 45.140625 70.574219 45.222656 70.289062 45.382812 70.019531 C 45.546875 69.742188 45.78125 69.488281 46.105469 69.25 C 45.988281 69.101562 45.898438 68.949219 45.84375 68.792969 C 45.78125 68.644531 45.757812 68.5 45.757812 68.355469 C 45.757812 67.960938 45.886719 67.648438 46.148438 67.414062 C 46.410156 67.175781 46.765625 67.054688 47.207031 67.054688 C 47.402344 67.054688 47.601562 67.074219 47.796875 67.125 C 47.996094 67.164062 48.195312 67.226562 48.398438 67.3125 L 48.398438 67.976562 C 48.195312 67.863281 47.996094 67.773438 47.800781 67.71875 C 47.617188 67.65625 47.441406 67.625 47.28125 67.625 C 47.03125 67.625 46.828125 67.695312 46.671875 67.832031 C 46.507812 67.960938 46.433594 68.136719 46.433594 68.351562 C 46.433594 68.46875 46.464844 68.59375 46.539062 68.71875 C 46.609375 68.84375 46.75 69.019531 46.96875 69.242188 Z M 46.96875 69.242188 "/>
<path style=" stroke:none;fill-rule:nonzero;fill:rgb(34.509804%,34.509804%,34.509804%);fill-opacity:1;" d="M 53.449219 67.15625 L 56.519531 67.15625 L 56.519531 67.769531 L 54.171875 67.769531 L 54.171875 69.363281 L 56.289062 69.363281 L 56.289062 69.976562 L 54.171875 69.976562 L 54.171875 72.550781 L 53.449219 72.550781 Z M 53.449219 67.15625 "/>
<path style=" stroke:none;fill-rule:nonzero;fill:rgb(34.509804%,34.509804%,34.509804%);fill-opacity:1;" d="M 58.789062 70.519531 C 58.253906 70.519531 57.886719 70.574219 57.683594 70.699219 C 57.476562 70.824219 57.371094 71.03125 57.371094 71.332031 C 57.371094 71.570312 57.453125 71.757812 57.601562 71.894531 C 57.757812 72.03125 57.96875 72.101562 58.234375 72.101562 C 58.597656 72.101562 58.894531 71.96875 59.113281 71.707031 C 59.335938 71.445312 59.449219 71.101562 59.449219 70.664062 L 59.449219 70.519531 Z M 60.101562 70.242188 L 60.101562 72.550781 L 59.449219 72.550781 L 59.449219 71.9375 C 59.292969 72.179688 59.105469 72.367188 58.882812 72.480469 C 58.660156 72.601562 58.386719 72.664062 58.0625 72.664062 C 57.644531 72.664062 57.324219 72.542969 57.078125 72.304688 C 56.832031 72.074219 56.714844 71.761719 56.714844 71.375 C 56.714844 70.917969 56.863281 70.574219 57.167969 70.34375 C 57.472656 70.113281 57.917969 69.992188 58.523438 69.992188 L 59.449219 69.992188 L 59.449219 69.929688 C 59.449219 69.625 59.34375 69.386719 59.144531 69.21875 C 58.945312 69.054688 58.664062 68.96875 58.304688 68.96875 C 58.074219 68.96875 57.851562 69 57.632812 69.054688 C 57.414062 69.113281 57.210938 69.195312 57.011719 69.300781 L 57.011719 68.6875 C 57.246094 68.59375 57.484375 68.523438 57.714844 68.480469 C 57.9375 68.429688 58.160156 68.40625 58.371094 68.40625 C 58.949219 68.40625 59.386719 68.554688 59.671875 68.863281 C 59.957031 69.167969 60.101562 69.625 60.101562 70.242188 Z M 60.101562 70.242188 "/>
<path style=" stroke:none;fill-rule:nonzero;fill:rgb(34.509804%,34.509804%,34.509804%);fill-opacity:1;" d="M 64.015625 68.617188 L 64.015625 69.25 C 63.828125 69.15625 63.636719 69.082031 63.429688 69.03125 C 63.234375 68.988281 63.027344 68.960938 62.808594 68.960938 C 62.488281 68.960938 62.238281 69.011719 62.078125 69.113281 C 61.914062 69.210938 61.835938 69.367188 61.835938 69.570312 C 61.835938 69.726562 61.890625 69.851562 62.007812 69.929688 C 62.121094 70.019531 62.355469 70.101562 62.714844 70.179688 L 62.941406 70.230469 C 63.40625 70.335938 63.734375 70.480469 63.933594 70.664062 C 64.128906 70.851562 64.226562 71.105469 64.226562 71.429688 C 64.226562 71.8125 64.082031 72.105469 63.785156 72.332031 C 63.492188 72.550781 63.089844 72.664062 62.574219 72.664062 C 62.355469 72.664062 62.132812 72.636719 61.902344 72.59375 C 61.667969 72.550781 61.425781 72.488281 61.167969 72.40625 L 61.167969 71.710938 C 61.410156 71.84375 61.648438 71.9375 61.882812 72.007812 C 62.121094 72.070312 62.351562 72.101562 62.585938 72.101562 C 62.898438 72.101562 63.132812 72.050781 63.300781 71.945312 C 63.476562 71.832031 63.554688 71.679688 63.554688 71.480469 C 63.554688 71.304688 63.492188 71.167969 63.367188 71.070312 C 63.25 70.976562 62.984375 70.882812 62.578125 70.792969 L 62.351562 70.738281 C 61.941406 70.648438 61.648438 70.519531 61.460938 70.335938 C 61.28125 70.164062 61.195312 69.914062 61.195312 69.601562 C 61.195312 69.21875 61.324219 68.925781 61.59375 68.71875 C 61.859375 68.511719 62.238281 68.40625 62.730469 68.40625 C 62.972656 68.40625 63.203125 68.425781 63.417969 68.460938 C 63.628906 68.492188 63.835938 68.550781 64.015625 68.617188 Z M 64.015625 68.617188 "/>
<path style=" stroke:none;fill-rule:nonzero;fill:rgb(34.509804%,34.509804%,34.509804%);fill-opacity:1;" d="M 67.835938 68.617188 L 67.835938 69.25 C 67.652344 69.15625 67.453125 69.082031 67.253906 69.03125 C 67.054688 68.988281 66.84375 68.960938 66.632812 68.960938 C 66.300781 68.960938 66.058594 69.011719 65.890625 69.113281 C 65.730469 69.210938 65.65625 69.367188 65.65625 69.570312 C 65.65625 69.726562 65.710938 69.851562 65.828125 69.929688 C 65.941406 70.019531 66.179688 70.101562 66.53125 70.179688 L 66.757812 70.230469 C 67.226562 70.335938 67.558594 70.480469 67.75 70.664062 C 67.949219 70.851562 68.046875 71.105469 68.046875 71.429688 C 68.046875 71.8125 67.898438 72.105469 67.609375 72.332031 C 67.308594 72.550781 66.90625 72.664062 66.394531 72.664062 C 66.179688 72.664062 65.953125 72.636719 65.71875 72.59375 C 65.488281 72.550781 65.246094 72.488281 64.984375 72.40625 L 64.984375 71.710938 C 65.226562 71.84375 65.46875 71.9375 65.707031 72.007812 C 65.941406 72.070312 66.171875 72.101562 66.40625 72.101562 C 66.710938 72.101562 66.953125 72.050781 67.121094 71.945312 C 67.289062 71.832031 67.378906 71.679688 67.378906 71.480469 C 67.378906 71.304688 67.316406 71.167969 67.191406 71.070312 C 67.074219 70.976562 66.804688 70.882812 66.402344 70.792969 L 66.171875 70.738281 C 65.761719 70.648438 65.464844 70.519531 65.28125 70.335938 C 65.101562 70.164062 65.015625 69.914062 65.015625 69.601562 C 65.015625 69.21875 65.148438 68.925781 65.414062 68.71875 C 65.679688 68.511719 66.058594 68.40625 66.550781 68.40625 C 66.792969 68.40625 67.023438 68.425781 67.234375 68.460938 C 67.453125 68.492188 67.652344 68.550781 67.835938 68.617188 Z M 67.835938 68.617188 "/>
<path style=" stroke:none;fill-rule:nonzero;fill:rgb(34.509804%,34.509804%,34.509804%);fill-opacity:1;" d="M 70.917969 70.519531 C 70.390625 70.519531 70.019531 70.574219 69.8125 70.699219 C 69.609375 70.824219 69.507812 71.03125 69.507812 71.332031 C 69.507812 71.570312 69.582031 71.757812 69.738281 71.894531 C 69.886719 72.03125 70.097656 72.101562 70.367188 72.101562 C 70.734375 72.101562 71.023438 71.96875 71.25 71.707031 C 71.464844 71.445312 71.578125 71.101562 71.578125 70.664062 L 71.578125 70.519531 Z M 72.230469 70.242188 L 72.230469 72.550781 L 71.578125 72.550781 L 71.578125 71.9375 C 71.429688 72.179688 71.242188 72.367188 71.019531 72.480469 C 70.789062 72.601562 70.515625 72.664062 70.191406 72.664062 C 69.78125 72.664062 69.453125 72.542969 69.210938 72.304688 C 68.96875 72.074219 68.84375 71.761719 68.84375 71.375 C 68.84375 70.917969 69 70.574219 69.296875 70.34375 C 69.601562 70.113281 70.054688 69.992188 70.652344 69.992188 L 71.578125 69.992188 L 71.578125 69.929688 C 71.578125 69.625 71.480469 69.386719 71.273438 69.21875 C 71.074219 69.054688 70.796875 68.96875 70.441406 68.96875 C 70.210938 68.96875 69.988281 69 69.765625 69.054688 C 69.546875 69.113281 69.339844 69.195312 69.140625 69.300781 L 69.140625 68.6875 C 69.378906 68.59375 69.613281 68.523438 69.84375 68.480469 C 70.070312 68.429688 70.292969 68.40625 70.503906 68.40625 C 71.085938 68.40625 71.515625 68.554688 71.800781 68.863281 C 72.089844 69.167969 72.230469 69.625 72.230469 70.242188 Z M 72.230469 70.242188 "/>
<path style=" stroke:none;fill-rule:nonzero;fill:rgb(34.509804%,34.509804%,34.509804%);fill-opacity:1;" d="M 76.234375 69.117188 L 76.234375 66.925781 L 76.890625 66.925781 L 76.890625 72.550781 L 76.234375 72.550781 L 76.234375 71.945312 C 76.089844 72.1875 75.917969 72.367188 75.703125 72.480469 C 75.492188 72.601562 75.238281 72.664062 74.941406 72.664062 C 74.460938 72.664062 74.0625 72.460938 73.757812 72.070312 C 73.457031 71.679688 73.304688 71.167969 73.304688 70.53125 C 73.304688 69.894531 73.457031 69.382812 73.757812 68.992188 C 74.0625 68.601562 74.460938 68.40625 74.941406 68.40625 C 75.238281 68.40625 75.492188 68.460938 75.703125 68.582031 C 75.917969 68.699219 76.089844 68.882812 76.234375 69.117188 Z M 73.984375 70.53125 C 73.984375 71.019531 74.082031 71.398438 74.28125 71.679688 C 74.480469 71.960938 74.761719 72.101562 75.109375 72.101562 C 75.457031 72.101562 75.730469 71.960938 75.929688 71.679688 C 76.132812 71.398438 76.234375 71.019531 76.234375 70.53125 C 76.234375 70.042969 76.132812 69.65625 75.929688 69.382812 C 75.730469 69.101562 75.457031 68.960938 75.109375 68.960938 C 74.761719 68.960938 74.480469 69.101562 74.28125 69.382812 C 74.082031 69.65625 73.984375 70.042969 73.984375 70.53125 Z M 73.984375 70.53125 "/>
<path style=" stroke:none;fill-rule:nonzero;fill:rgb(34.509804%,34.509804%,34.509804%);fill-opacity:1;" d="M 81.675781 70.363281 L 81.675781 70.6875 L 78.652344 70.6875 C 78.675781 71.144531 78.804688 71.5 79.054688 71.738281 C 79.296875 71.976562 79.644531 72.09375 80.078125 72.09375 C 80.335938 72.09375 80.578125 72.0625 80.8125 72.007812 C 81.054688 71.9375 81.285156 71.84375 81.523438 71.710938 L 81.523438 72.351562 C 81.285156 72.449219 81.042969 72.523438 80.792969 72.574219 C 80.546875 72.632812 80.292969 72.664062 80.042969 72.664062 C 79.402344 72.664062 78.894531 72.46875 78.519531 72.09375 C 78.148438 71.71875 77.960938 71.207031 77.960938 70.570312 C 77.960938 69.90625 78.132812 69.375 78.488281 68.988281 C 78.847656 68.601562 79.320312 68.40625 79.925781 68.40625 C 80.464844 68.40625 80.894531 68.582031 81.203125 68.929688 C 81.523438 69.28125 81.675781 69.761719 81.675781 70.363281 Z M 81.019531 70.164062 C 81.011719 69.800781 80.914062 69.511719 80.714844 69.300781 C 80.519531 69.082031 80.261719 68.96875 79.929688 68.96875 C 79.5625 68.96875 79.265625 69.074219 79.046875 69.289062 C 78.824219 69.492188 78.699219 69.789062 78.664062 70.167969 Z M 81.019531 70.164062 "/>
<path style=" stroke:none;fill-rule:nonzero;fill:rgb(34.509804%,34.509804%,34.509804%);fill-opacity:1;" d="M 86.089844 70.105469 L 86.089844 72.550781 L 85.429688 72.550781 L 85.429688 70.132812 C 85.429688 69.742188 85.355469 69.460938 85.207031 69.269531 C 85.0625 69.082031 84.839844 68.980469 84.546875 68.980469 C 84.1875 68.980469 83.90625 69.101562 83.703125 69.324219 C 83.496094 69.554688 83.390625 69.867188 83.390625 70.261719 L 83.390625 72.550781 L 82.734375 72.550781 L 82.734375 68.5 L 83.390625 68.5 L 83.390625 69.132812 C 83.554688 68.886719 83.742188 68.707031 83.953125 68.585938 C 84.164062 68.46875 84.410156 68.40625 84.691406 68.40625 C 85.152344 68.40625 85.5 68.550781 85.734375 68.84375 C 85.972656 69.132812 86.089844 69.550781 86.089844 70.105469 Z M 86.089844 70.105469 "/>
<path style=" stroke:none;fill-rule:nonzero;fill:rgb(34.509804%,34.509804%,34.509804%);fill-opacity:1;" d="M 93.410156 71.78125 L 93.410156 70.335938 L 92.222656 70.335938 L 92.222656 69.730469 L 94.125 69.730469 L 94.125 72.050781 C 93.84375 72.25 93.535156 72.398438 93.199219 72.507812 C 92.863281 72.605469 92.503906 72.664062 92.125 72.664062 C 91.285156 72.664062 90.632812 72.414062 90.160156 71.917969 C 89.6875 71.425781 89.453125 70.738281 89.453125 69.863281 C 89.453125 68.976562 89.6875 68.289062 90.160156 67.792969 C 90.632812 67.300781 91.285156 67.054688 92.125 67.054688 C 92.472656 67.054688 92.800781 67.101562 93.117188 67.179688 C 93.429688 67.273438 93.71875 67.398438 93.988281 67.570312 L 93.988281 68.351562 C 93.714844 68.117188 93.429688 67.949219 93.128906 67.835938 C 92.824219 67.71875 92.515625 67.664062 92.1875 67.664062 C 91.527344 67.664062 91.035156 67.84375 90.707031 68.210938 C 90.378906 68.582031 90.214844 69.132812 90.214844 69.863281 C 90.214844 70.585938 90.378906 71.136719 90.707031 71.507812 C 91.035156 71.867188 91.527344 72.054688 92.1875 72.054688 C 92.441406 72.054688 92.664062 72.039062 92.863281 71.992188 C 93.066406 71.945312 93.25 71.875 93.410156 71.78125 Z M 93.410156 71.78125 "/>
<path style=" stroke:none;fill-rule:nonzero;fill:rgb(34.509804%,34.509804%,34.509804%);fill-opacity:1;" d="M 98.535156 69.28125 C 98.703125 68.980469 98.898438 68.761719 99.128906 68.617188 C 99.355469 68.476562 99.625 68.40625 99.933594 68.40625 C 100.359375 68.40625 100.675781 68.550781 100.90625 68.851562 C 101.128906 69.144531 101.246094 69.5625 101.246094 70.105469 L 101.246094 72.550781 L 100.582031 72.550781 L 100.582031 70.132812 C 100.582031 69.742188 100.511719 69.457031 100.375 69.269531 C 100.238281 69.074219 100.035156 68.980469 99.753906 68.980469 C 99.414062 68.980469 99.140625 69.101562 98.941406 69.324219 C 98.742188 69.554688 98.648438 69.867188 98.648438 70.261719 L 98.648438 72.550781 L 97.984375 72.550781 L 97.984375 70.132812 C 97.984375 69.738281 97.914062 69.449219 97.785156 69.269531 C 97.648438 69.074219 97.4375 68.980469 97.152344 68.980469 C 96.816406 68.980469 96.546875 69.101562 96.347656 69.324219 C 96.152344 69.554688 96.058594 69.867188 96.058594 70.261719 L 96.058594 72.550781 L 95.390625 72.550781 L 95.390625 68.5 L 96.058594 68.5 L 96.058594 69.132812 C 96.199219 68.886719 96.378906 68.707031 96.59375 68.585938 C 96.804688 68.46875 97.050781 68.40625 97.34375 68.40625 C 97.628906 68.40625 97.878906 68.480469 98.082031 68.632812 C 98.289062 68.78125 98.445312 69 98.535156 69.28125 Z M 98.535156 69.28125 "/>
<path style=" stroke:none;fill-rule:nonzero;fill:rgb(34.509804%,34.509804%,34.509804%);fill-opacity:1;" d="M 105.433594 70.53125 C 105.433594 70.042969 105.335938 69.65625 105.136719 69.382812 C 104.9375 69.101562 104.664062 68.960938 104.316406 68.960938 C 103.96875 68.960938 103.6875 69.101562 103.496094 69.382812 C 103.296875 69.65625 103.199219 70.042969 103.199219 70.53125 C 103.199219 71.019531 103.296875 71.398438 103.496094 71.679688 C 103.6875 71.960938 103.96875 72.101562 104.316406 72.101562 C 104.664062 72.101562 104.9375 71.960938 105.136719 71.679688 C 105.335938 71.398438 105.433594 71.019531 105.433594 70.53125 Z M 103.199219 69.117188 C 103.335938 68.882812 103.507812 68.699219 103.71875 68.582031 C 103.929688 68.460938 104.1875 68.40625 104.476562 68.40625 C 104.960938 68.40625 105.355469 68.601562 105.660156 68.992188 C 105.964844 69.382812 106.117188 69.894531 106.117188 70.53125 C 106.117188 71.167969 105.964844 71.679688 105.660156 72.070312 C 105.355469 72.460938 104.960938 72.664062 104.476562 72.664062 C 104.1875 72.664062 103.929688 72.601562 103.71875 72.480469 C 103.507812 72.367188 103.335938 72.1875 103.199219 71.945312 L 103.199219 72.550781 L 102.53125 72.550781 L 102.53125 66.925781 L 103.199219 66.925781 Z M 103.199219 69.117188 "/>
<path style=" stroke:none;fill-rule:nonzero;fill:rgb(2.352941%,30.588235%,63.529412%);fill-opacity:1;" d="M 45.460938 58.554688 L 45.460938 62.507812 L 47.78125 62.507812 C 48.558594 62.507812 49.136719 62.351562 49.511719 62.023438 C 49.882812 61.695312 50.070312 61.199219 50.070312 60.53125 C 50.070312 59.855469 49.882812 59.355469 49.511719 59.039062 C 49.136719 58.71875 48.558594 58.554688 47.78125 58.554688 Z M 45.460938 54.113281 L 45.460938 57.367188 L 47.601562 57.367188 C 48.3125 57.367188 48.832031 57.238281 49.179688 56.96875 C 49.523438 56.699219 49.695312 56.289062 49.695312 55.738281 C 49.695312 55.195312 49.523438 54.792969 49.179688 54.523438 C 48.832031 54.25 48.3125 54.113281 47.601562 54.113281 Z M 44.015625 52.914062 L 47.707031 52.914062 C 48.808594 52.914062 49.660156 53.144531 50.257812 53.605469 C 50.851562 54.070312 51.152344 54.730469 51.152344 55.582031 C 51.152344 56.242188 50.996094 56.769531 50.691406 57.15625 C 50.394531 57.550781 49.941406 57.792969 49.347656 57.886719 C 50.058594 58.042969 50.617188 58.367188 51.007812 58.855469 C 51.398438 59.34375 51.597656 59.949219 51.597656 60.6875 C 51.597656 61.648438 51.269531 62.394531 50.625 62.925781 C 49.96875 63.445312 49.050781 63.707031 47.851562 63.707031 L 44.015625 63.707031 Z M 44.015625 52.914062 "/>
<path style=" stroke:none;fill-rule:nonzero;fill:rgb(2.352941%,30.588235%,63.529412%);fill-opacity:1;" d="M 54.078125 52.914062 L 55.519531 52.914062 L 55.519531 57.476562 L 60.324219 52.914062 L 62.183594 52.914062 L 56.882812 57.945312 L 62.5625 63.707031 L 60.660156 63.707031 L 55.519531 58.511719 L 55.519531 63.707031 L 54.078125 63.707031 Z M 54.078125 52.914062 "/>
</g>
</svg>
