<svg xmlns="http://www.w3.org/2000/svg" xmlns:xlink="http://www.w3.org/1999/xlink" version="1.1" width="1000" height="1000" viewBox="0 0 1000 1000" xml:space="preserve">
<desc>Created with Fabric.js 3.5.0</desc>
<defs>
</defs>
<rect x="0" y="0" width="100%" height="100%" fill="#ffffff"></rect>
<g transform="matrix(0.3401 0 0 0.3401 453.9903 465.2265)" id="76612"  >
<g style="" vector-effect="non-scaling-stroke"   >
		<g transform="matrix(2.3133 0 0 2.3133 2.7397 -51.363)"  >
<path style="stroke: none; stroke-width: 1; stroke-dasharray: none; stroke-linecap: butt; stroke-dashoffset: 0; stroke-linejoin: miter; stroke-miterlimit: 4; is-custom-font: none; font-file-url: none; fill: rgb(88,88,88); fill-rule: nonzero; opacity: 1;"  transform=" translate(-45.742, -32.448)" d="M 24.622 29.458 C 13.465 36.15 5.764 47.995 4.789 61.704 l 5.436 -6.537 c 2.256 -8.428 7.443 -15.662 14.397 -20.553 v 0.284 v 0.322 v 11.717 l 5.338 1.184 V 32.032 v -0.285 v -0.259 v -1.721 V 16.108 l -5.338 8.401 V 29.458 z M 70.955 32.362 v 5.701 c 5.875 5.587 9.905 13.09 11.076 21.501 l 4.658 5.332 c 0 -0.082 0.006 -0.163 0.006 -0.245 C 86.695 51.536 80.533 39.869 70.955 32.362 z M 35.511 49.352 l 1.403 0.312 V 23.619 l -1.403 -0.806 V 49.352 z M 33.081 48.813 l 1.537 0.341 V 22.3 l -1.537 -0.882 V 48.813 z M 37.803 16.113 v 8.29 v 4.4 v 0.25 v 0.257 v 20.55 l 0.004 0.002 l 1.403 0.312 l 0.893 0.197 l 1.361 0.303 l 1.678 0.372 v -22.51 v -0.248 V 28.04 v -4.315 v -2.545 V 0 l -5.339 8.401 V 16.113 z M 54.646 10.124 l -1.361 -0.783 v 10.21 l -0.893 1.405 V 8.829 l -1.403 -0.806 v 15.141 v 2.827 v 2.339 v 0.247 v 0.251 v 27.481 l 1.403 -0.311 l 0.893 -0.199 l 1.361 -0.303 l 1.681 -0.373 V 30.034 v -0.262 v -0.251 v -2.48 V 14.763 l -1.681 2.645 V 10.124 z M 46.264 23.652 v 4.304 v 0.247 v 0.247 v 24.134 l 1.537 2.307 V 28.503 v -0.249 v -0.247 v -4.315 v -17.5 L 46.264 5.31 V 23.652 z M 48.693 23.76 v 4.315 v 0.247 v 0.248 v 27.661 l 0.341 0.511 l 1.063 -0.236 V 28.715 v -0.25 v -0.248 v -2.339 V 7.51 l -1.403 -0.806 V 23.76 z M 64.175 53.383 l 1.403 -0.312 v -29.48 l -1.403 -0.806 V 53.383 z M 66.471 52.874 l 1.361 -0.302 V 24.886 l -1.361 -0.782 V 52.874 z M 59.449 54.431 l 1.537 -0.341 V 20.955 l -1.537 -0.883 V 54.431 z M 61.879 53.893 l 1.403 -0.312 V 22.273 l -1.403 -0.806 V 53.893 z" stroke-linecap="round" />
</g>
		<g transform="matrix(2.3133 0 0 2.3133 -55.01 18.5283)"  >
<path style="stroke: none; stroke-width: 1; stroke-dasharray: none; stroke-linecap: butt; stroke-dashoffset: 0; stroke-linejoin: miter; stroke-miterlimit: 4; is-custom-font: none; font-file-url: none; fill: rgb(88,88,88); fill-rule: nonzero; opacity: 1;"  transform=" translate(-20.778, -62.662)" d="M 18.265 62.128 v 0.3 h 2.229 v -2.784 C 19.241 59.788 18.265 60.838 18.265 62.128 z M 21.063 59.644 v 2.784 h 2.228 v -0.3 C 23.291 60.838 22.315 59.788 21.063 59.644 z M 18.265 65.68 h 2.229 v -2.682 h -2.229 V 65.68 z M 21.063 65.68 h 2.228 v -2.682 h -2.228 V 65.68 z" stroke-linecap="round" />
</g>
		<g transform="matrix(2.3133 0 0 2.3133 64.0209 29.7233)"  >
<path style="stroke: none; stroke-width: 1; stroke-dasharray: none; stroke-linecap: butt; stroke-dashoffset: 0; stroke-linejoin: miter; stroke-miterlimit: 4; is-custom-font: none; font-file-url: none; fill: rgb(88,88,88); fill-rule: nonzero; opacity: 1;"  transform=" translate(-72.234, -67.5015)" d="M 74.662 66.767 c -0.007 -0.083 -0.008 -0.167 -0.023 -0.247 c -0.199 -1.039 -1.061 -1.837 -2.127 -1.959 v 2.713 h 2.171 v -0.292 C 74.683 66.909 74.669 66.838 74.662 66.767 z M 69.829 66.52 c -0.015 0.08 -0.017 0.164 -0.024 0.247 c -0.006 0.071 -0.02 0.142 -0.02 0.215 v 0.292 h 2.171 v -2.713 c -0.366 0.042 -0.702 0.172 -1.001 0.355 C 70.383 65.267 69.961 65.838 69.829 66.52 z M 72.512 70.442 h 2.171 V 67.83 h -2.171 V 70.442 z M 69.785 70.442 h 2.171 V 67.83 h -2.171 V 70.442 z" stroke-linecap="round" />
</g>
		<g transform="matrix(2.3133 0 0 2.3133 4.4661 11.1853)"  >
<polygon style="stroke: none; stroke-width: 1; stroke-dasharray: none; stroke-linecap: butt; stroke-dashoffset: 0; stroke-linejoin: miter; stroke-miterlimit: 4; is-custom-font: none; font-file-url: none; fill: rgb(6,78,162); fill-rule: nonzero; opacity: 1;"  points="27.1095,-6.6155 24.4665,-6.0475 21.3435,-5.3765 19.9825,-5.0835 19.0895,-4.8915 17.6865,-4.5905 16.7935,-4.3985 15.3905,-4.0975 14.4975,-3.9045 12.9605,-3.5745 11.2805,-3.2135 9.8385,-2.9035 8.1575,-2.5425 6.7965,-2.2495 5.9045,-2.0575 4.5005,-1.7565 3.6085,-1.5645 3.3655,-1.5125 3.1075,-1.4565 2.8465,-1.4015 2.5445,-1.3365 2.2045,-1.2635 1.7865,-1.1725 1.3125,-0.6345 -0.2245,1.1105 -1.9015,3.0145 -3.3465,4.6545 -4.9115,6.4295 -4.9115,6.4295 -3.3465,4.3055 -1.9015,2.3425 -0.2245,0.0635 1.3125,-2.0245 1.6695,-2.5105 1.3125,-2.9895 -0.2245,-5.0535 -1.1205,-6.2545 -1.9015,-6.4225 -3.3465,-6.7335 -5.0245,-7.0945 -6.3855,-7.3875 -7.2785,-7.5785 -8.6815,-7.8795 -8.6855,-7.8805 -9.5745,-8.0715 -10.9775,-8.3735 -11.8705,-8.5655 -13.4075,-8.8955 -16.5295,-9.5675 -21.8665,-10.7135 -27.1095,-11.8405 -21.8665,-4.7155 -16.5295,2.5395 -13.4075,6.7825 -13.2225,7.0325 -13.0415,7.2795 -12.8595,7.5265 -11.8705,8.8715 -11.4075,9.4995 -9.6865,11.8405 9.6715,11.8405 9.6485,11.8315 11.6595,11.8315 11.8125,11.8315 11.8925,11.7355 12.0575,11.5365 12.0985,11.4865 13.3145,10.0205 13.3145,10.0205 14.4975,8.5935 15.3815,7.5265 15.3905,7.5145 15.5865,7.2795 15.7915,7.0325 16.7935,5.8235 17.6865,4.7475 19.0895,3.0555 19.9825,1.9785 21.3435,0.3365 24.4665,-3.4285 " />
</g>
		<g transform="matrix(2.3133 0 0 2.3133 -0.1447 13.4522)"  >
<path style="stroke: none; stroke-width: 1; stroke-dasharray: none; stroke-linecap: butt; stroke-dashoffset: 0; stroke-linejoin: miter; stroke-miterlimit: 4; is-custom-font: none; font-file-url: none; fill: rgb(6,78,162); fill-rule: nonzero; opacity: 1;"  transform=" translate(-44.495, -60.4675)" d="M 9.852 59.423 l -0.293 0.339 l -0.291 0.337 l -4.578 5.3 L 0 70.832 l 3.58 0.065 l 3.492 -4.13 l 1.906 -2.254 l 0.255 -0.302 l 0.255 -0.301 l 10.45 -12.354 l -1.618 -1.941 L 9.852 59.423 z M 85.075 66.767 l -2.708 -3.104 l -0.255 -0.291 l -0.255 -0.292 l -7.229 -8.288 l -1.575 1.891 l 8.367 9.838 l 0.211 0.247 l 0.209 0.247 l 3.662 4.305 l 3.488 -0.063 L 85.075 66.767 z" stroke-linecap="round" />
</g>
		<g transform="matrix(0.8001 0 0 0.8001 -11.5169 111.106)" style=""  >
		<text xml:space="preserve" font-family="OldSansBlack" font-size="34" font-style="normal" font-weight="normal" style="stroke: none; stroke-width: 1; stroke-dasharray: none; stroke-linecap: butt; stroke-dashoffset: 0; stroke-linejoin: miter; stroke-miterlimit: 4; is-custom-font: none; font-file-url: none; fill: rgb(88,88,88); fill-rule: nonzero; opacity: 1; white-space: pre;" ><tspan x="-202.5474" y="10.6808" >Innenputz &amp; Fassaden GmbH</tspan></text>
</g>
		<g transform="matrix(0.8777 0 0 0.8777 0.9746 70.0787)" style=""  >
		<text xml:space="preserve" font-family="OldSansBlack" font-size="62" font-style="normal" font-weight="normal" style="stroke: none; stroke-width: 1; stroke-dasharray: none; stroke-linecap: butt; stroke-dashoffset: 0; stroke-linejoin: miter; stroke-miterlimit: 4; is-custom-font: none; font-file-url: none; fill: rgb(6,78,162); fill-rule: nonzero; opacity: 1; white-space: pre;" ><tspan x="-43.064" y="19.4767" >BK</tspan></text>
</g>
</g>
</g>
</svg>