<?xml version="1.0" standalone="no"?>
<!DOCTYPE svg PUBLIC "-//W3C//DTD SVG 20010904//EN"
 "http://www.w3.org/TR/2001/REC-SVG-20010904/DTD/svg10.dtd">
<svg version="1.0" xmlns="http://www.w3.org/2000/svg"
 width="500.000000pt" height="500.000000pt" viewBox="0 0 500.000000 500.000000"
 preserveAspectRatio="xMidYMid meet">
<metadata>
Created by potrace 1.14, written by Peter Selinger 2001-2017
</metadata>
<g transform="translate(0.000000,500.000000) scale(0.100000,-0.100000)"
fill="#000000" stroke="none">
<path d="M2423 3937 c-18 -29 -48 -77 -68 -107 -19 -30 -36 -57 -36 -60 -1 -3
-2 -260 -3 -572 l-1 -567 69 -16 c38 -9 70 -14 72 -12 2 2 3 315 2 694 l-3
691 -32 -51z"/>
<path d="M2549 3835 c-1 -22 -1 -1263 0 -1277 1 -7 10 -24 21 -38 19 -25 20
-22 20 640 0 654 0 665 -20 678 -17 10 -20 10 -21 -3z"/>
<path d="M2613 3128 c2 -600 4 -683 17 -683 13 0 15 83 18 674 2 680 2 690
-30 691 -4 0 -6 -307 -5 -682z"/>
<path d="M2679 3768 c-6 -13 -2 -1301 4 -1305 5 -3 37 1 73 8 45 9 64 17 65
28 4 105 0 1073 -4 1078 -4 3 -12 -6 -18 -21 -7 -14 -15 -26 -18 -26 -4 0 -6
41 -5 90 2 72 -1 94 -15 107 -15 15 -16 6 -21 -130 -7 -208 -26 -212 -25 -4 0
98 -4 165 -10 169 -10 8 -24 10 -26 6z"/>
<path d="M2079 3522 c-9 -15 -42 -66 -72 -114 -53 -82 -55 -89 -53 -147 1 -34
-1 -65 -4 -69 -3 -4 -36 -30 -75 -57 -209 -147 -381 -405 -435 -654 -22 -100
-32 -177 -21 -165 4 5 32 38 62 74 30 36 58 68 62 71 4 3 24 48 43 100 51 137
114 242 209 348 49 55 147 133 154 123 3 -6 6 -80 5 -166 l0 -157 25 -5 c15
-3 46 -10 70 -15 24 -5 45 -8 47 -6 2 2 3 198 2 435 -3 405 -4 430 -19 404z"/>
<path d="M2909 3423 c0 -10 -1 -218 -1 -463 l-1 -445 22 -3 21 -3 0 459 c0
410 -2 461 -16 466 -22 9 -24 8 -25 -11z"/>
<path d="M2189 3403 c-1 -5 -2 -172 -3 -371 -1 -332 0 -365 16 -373 9 -5 19
-9 22 -9 3 0 6 165 6 368 0 356 -1 368 -20 380 -11 7 -20 9 -21 5z"/>
<path d="M2977 3393 c-2 -5 -4 -201 -3 -437 1 -316 4 -430 13 -433 6 -2 14 1
18 7 8 13 8 848 0 861 -7 11 -22 12 -28 2z"/>
<path d="M2252 3007 c3 -335 4 -362 21 -365 16 -3 17 19 17 356 0 352 0 360
-20 365 -20 5 -20 2 -18 -356z"/>
<path d="M3038 3357 c-2 -7 -4 -192 -3 -412 0 -392 1 -400 20 -400 20 0 20 8
21 395 0 217 -2 400 -4 407 -5 17 -30 24 -34 10z"/>
<path d="M3100 2940 c0 -214 3 -390 8 -390 27 1 29 25 29 390 0 363 -2 389
-29 390 -5 0 -8 -175 -8 -390z"/>
<path d="M3220 3027 c0 -71 1 -74 36 -108 55 -52 141 -180 184 -271 34 -73 47
-116 81 -258 5 -19 26 -53 46 -74 21 -22 49 -53 62 -70 l23 -31 -6 95 c-7 123
-11 145 -52 269 -56 171 -143 310 -276 444 -42 42 -82 77 -87 77 -7 0 -11 -28
-11 -73z"/>
<path d="M1820 2685 c0 -5 78 -112 378 -520 l89 -120 294 -1 295 -1 207 250
c114 138 206 251 205 252 -2 2 -84 -15 -183 -36 -99 -22 -193 -42 -210 -45
-16 -2 -38 -7 -47 -10 -17 -5 -45 -11 -88 -20 -153 -30 -151 -30 -228 -112
l-73 -77 62 85 c34 47 66 90 70 96 12 15 -61 111 -91 118 -14 4 -36 9 -50 11
-14 3 -45 10 -70 15 -25 5 -160 34 -300 65 -286 62 -260 57 -260 50z"/>
<path d="M1738 2587 c-23 -28 -45 -54 -49 -57 -3 -3 -50 -57 -104 -120 -55
-63 -109 -126 -121 -140 -12 -14 -52 -61 -90 -105 -38 -44 -73 -83 -78 -87
-16 -11 1 -22 37 -24 47 -2 39 -9 177 156 72 86 281 333 301 355 17 19 17 21
-6 47 l-24 27 -43 -52z"/>
<path d="M3297 2466 c-16 -24 -14 -26 154 -224 l170 -200 40 2 c21 2 41 5 43
7 5 5 -367 432 -381 436 -6 2 -17 -7 -26 -21z"/>
<path d="M1796 2335 c-10 -15 -15 -32 -13 -40 7 -17 57 -7 58 11 1 8 2 22 3
31 2 28 -30 26 -48 -2z"/>
<path d="M1859 2340 c-1 -11 -2 -26 -3 -32 -2 -16 23 -26 47 -20 21 5 15 39
-11 60 -22 17 -32 15 -33 -8z"/>
<path d="M1780 2236 c0 -28 4 -34 25 -38 31 -6 35 -2 35 39 0 30 -3 33 -30 33
-27 0 -30 -3 -30 -34z"/>
<path d="M1859 2268 c-1 -2 -2 -16 -3 -31 -2 -21 2 -31 18 -37 32 -12 46 -1
46 36 0 31 -3 34 -30 34 -16 0 -30 -1 -31 -2z"/>
<path d="M3212 2210 c-33 -31 -29 -58 8 -56 28 1 30 4 30 38 0 43 -7 46 -38
18z"/>
<path d="M3268 2223 c-4 -7 -3 -33 1 -62 0 -4 11 -8 24 -7 16 1 22 7 22 25 0
23 -39 60 -47 44z"/>
<path d="M3190 2106 c0 -30 3 -34 30 -38 29 -4 30 -3 30 34 0 36 -2 38 -30 38
-27 0 -30 -3 -30 -34z"/>
<path d="M3269 2138 c-1 -2 -2 -18 -4 -35 -2 -30 0 -33 26 -33 16 0 29 3 30 8
8 58 6 62 -23 62 -15 0 -28 -1 -29 -2z"/>
<path d="M2109 1913 c-1 -47 -1 -396 0 -426 l1 -28 113 2 c137 2 192 19 221
68 32 55 20 137 -26 170 -19 13 -19 14 2 36 31 32 38 99 15 141 -27 50 -74 64
-210 64 l-115 0 -1 -27z m228 -79 c16 -23 16 -36 0 -59 -10 -13 -28 -18 -68
-19 l-54 -1 -3 39 c-5 58 0 63 59 60 37 -1 57 -7 66 -20z m4 -185 c16 -16 20
-28 15 -52 -8 -41 -20 -47 -88 -47 l-58 0 0 60 0 60 55 0 c43 0 60 -5 76 -21z"/>
<path d="M2539 1923 c-1 -24 -1 -412 0 -440 1 -21 6 -23 51 -23 l50 0 0 73 c0
65 3 76 29 107 l28 34 16 -29 c8 -17 33 -64 55 -105 l39 -75 57 -3 c31 -2 56
0 56 4 0 4 -20 43 -44 88 -24 45 -58 109 -76 143 l-32 61 44 59 c23 32 49 64
56 71 6 8 17 22 22 33 10 18 7 19 -48 19 l-58 0 -59 -80 c-32 -44 -62 -80 -66
-80 -4 0 -10 -8 -12 -17 -3 -10 -5 26 -6 80 l-1 97 -50 0 c-41 0 -50 -3 -51
-17z"/>
<path d="M2018 1318 c-32 -11 -42 -37 -34 -82 5 -23 2 -37 -9 -46 -20 -16 -19
-60 1 -89 14 -20 22 -22 63 -17 25 3 51 6 56 6 6 1 20 -2 32 -5 30 -9 44 22
19 41 -14 10 -15 17 -7 33 6 11 11 24 11 30 0 18 -38 12 -49 -6 -9 -17 -11
-17 -27 -1 -17 17 -17 19 4 41 27 28 28 59 5 79 -28 24 -36 26 -65 16z m35
-42 c3 -8 -1 -20 -9 -26 -8 -7 -15 -10 -15 -6 -7 32 -4 46 11 46 4 0 10 -6 13
-14z m-9 -125 c19 -21 8 -35 -18 -25 -16 6 -23 44 -8 44 5 0 17 -9 26 -19z"/>
<path d="M3731 1312 c-39 -18 -48 -34 -55 -96 -7 -55 12 -109 42 -125 28 -15
85 -14 101 2 11 10 13 10 7 0 -5 -9 0 -13 16 -13 21 0 23 4 22 53 0 28 -2 57
-2 62 -1 6 -22 11 -47 11 -41 1 -45 -1 -45 -22 0 -17 6 -24 20 -24 23 0 26
-13 6 -29 -9 -8 -21 -8 -40 -1 -26 10 -29 16 -29 70 0 52 3 59 24 70 16 9 26
8 44 -4 46 -30 78 -14 47 23 -26 32 -73 42 -111 23z"/>
<path d="M477 1313 c-2 -5 -3 -57 -3 -118 l1 -110 26 -3 26 -3 0 120 c0 120 0
121 -23 121 -12 0 -24 -3 -27 -7z"/>
<path d="M2285 1203 l0 -118 25 0 c23 0 25 3 24 48 0 44 2 47 25 48 52 2 56 4
56 24 0 16 -8 21 -43 23 -34 3 -42 7 -38 18 3 9 6 19 6 23 0 4 21 7 48 7 41
-1 47 2 50 22 3 21 1 22 -75 22 l-78 0 0 -117z"/>
<path d="M3164 1288 c1 -31 -2 -33 -31 -33 -58 0 -93 -63 -70 -128 12 -36 31
-45 95 -45 l52 0 0 119 c0 118 0 119 -24 119 -20 0 -23 -5 -22 -32z m-7 -83
c5 -8 7 -31 5 -50 -5 -40 -34 -49 -51 -16 -25 46 21 112 46 66z"/>
<path d="M4168 1313 c-3 -7 -3 -188 1 -219 2 -16 103 -15 125 1 13 10 20 31
24 64 4 44 1 53 -22 76 -21 21 -34 26 -55 22 -26 -6 -28 -4 -27 26 0 25 -4 33
-21 35 -11 2 -23 0 -25 -5z m90 -102 c8 -5 12 -23 10 -47 -3 -34 -6 -39 -28
-39 -22 0 -25 4 -26 40 -1 48 15 65 44 46z"/>
<path d="M4350 1201 l0 -121 28 0 c27 0 28 2 26 50 l-1 51 41 -3 41 -3 -1 -48
c0 -46 1 -48 25 -45 l26 3 0 115 0 115 -25 0 c-22 0 -25 -4 -25 -40 -1 -40 -1
-40 -42 -43 l-41 -3 1 43 c2 40 0 43 -25 46 l-28 3 0 -120z"/>
<path d="M1629 1306 c-1 -3 -2 -16 -3 -28 -1 -13 -7 -22 -14 -20 -16 3 -16
-35 0 -40 7 -3 13 -27 14 -62 2 -81 -1 -79 137 -77 80 1 87 3 87 21 0 16 -7
20 -35 20 -19 0 -35 3 -35 6 0 3 16 26 35 52 49 64 44 77 -30 77 -54 0 -60 -2
-63 -21 -3 -18 2 -21 22 -19 38 5 39 -8 6 -49 -16 -21 -30 -42 -32 -48 -3 -8
-10 -7 -26 1 -16 8 -22 21 -22 44 0 34 12 60 26 57 19 -3 14 29 -6 35 -14 5
-20 14 -18 28 2 16 -3 23 -19 25 -13 2 -24 1 -24 -2z"/>
<path d="M567 1253 c-2 -5 -4 -44 -3 -88 1 -75 2 -80 24 -83 21 -3 22 0 22 61
0 50 4 66 16 71 27 10 34 -3 34 -70 0 -62 1 -64 25 -64 25 0 25 1 24 71 -1 55
-6 76 -20 90 -21 21 -54 25 -64 9 -4 -7 -12 -7 -25 0 -22 12 -28 12 -33 3z"/>
<path d="M749 1249 c-5 -3 -9 -42 -8 -87 1 -79 2 -82 25 -82 23 0 24 3 24 64
0 49 4 65 16 70 27 10 34 -3 34 -70 0 -61 1 -64 24 -64 23 0 24 2 22 75 0 45
-6 79 -14 87 -12 12 -106 18 -123 7z"/>
<path d="M953 1250 c-12 -5 -26 -18 -32 -29 -21 -39 -9 -112 23 -133 19 -13
71 -9 94 8 22 15 22 17 6 29 -13 9 -23 10 -35 2 -21 -13 -49 -3 -49 18 0 13 9
16 38 15 62 -3 63 -2 53 52 -2 15 -45 48 -60 47 -9 0 -26 -4 -38 -9z m55 -47
c2 -8 -6 -13 -22 -13 -25 0 -33 10 -19 24 10 10 36 3 41 -11z"/>
<path d="M1083 1245 c-2 -7 -3 -45 -1 -86 3 -68 5 -74 26 -77 21 -3 22 0 22
61 0 50 4 66 16 71 27 10 34 -3 34 -70 0 -62 1 -65 23 -62 21 3 22 8 22 75 -1
44 -6 78 -13 85 -16 16 -123 18 -129 3z"/>
<path d="M1264 1251 c-2 -2 -4 -55 -4 -118 l0 -113 25 0 c22 0 25 4 25 33 0
31 2 33 33 29 23 -3 38 2 50 16 33 37 26 131 -11 148 -18 8 -111 12 -118 5z
m87 -41 c35 -19 22 -90 -17 -90 -22 0 -24 4 -24 43 0 57 7 65 41 47z"/>
<path d="M1447 1253 c-11 -10 -8 -132 3 -153 8 -15 21 -18 73 -18 l62 0 0 86
c0 73 -2 85 -17 88 -25 3 -31 -11 -32 -75 -1 -50 -3 -56 -23 -59 -20 -3 -23 1
-24 35 -1 21 0 49 1 62 2 29 -26 52 -43 34z"/>
<path d="M2484 1250 c-32 -13 -37 -28 -15 -40 13 -7 22 -7 26 0 9 15 45 12 45
-3 0 -8 -17 -18 -37 -23 -43 -10 -66 -44 -54 -78 7 -18 17 -21 75 -23 l66 -2
0 60 c0 103 -35 138 -106 109z m54 -125 c-1 -2 -12 -5 -22 -7 -28 -5 -32 21
-4 31 17 6 24 5 26 -6 2 -8 2 -16 0 -18z"/>
<path d="M2644 1250 c-51 -21 -43 -70 16 -96 31 -14 37 -20 28 -31 -9 -11 -15
-11 -33 1 -21 14 -25 14 -36 0 -11 -14 -10 -18 6 -30 25 -19 80 -18 99 2 31
30 14 76 -34 92 -16 6 -30 16 -30 21 0 14 23 14 36 1 8 -8 15 -6 24 5 8 9 9
19 4 25 -15 14 -57 20 -80 10z"/>
<path d="M2772 1242 c-30 -30 -18 -68 29 -89 22 -9 39 -20 39 -25 0 -12 -48
-10 -55 2 -5 8 -11 7 -21 -1 -22 -18 10 -49 52 -49 72 0 87 71 22 103 -38 18
-50 37 -25 37 7 0 18 -5 23 -10 8 -8 15 -6 24 5 16 20 5 33 -37 41 -23 5 -36
1 -51 -14z"/>
<path d="M2922 1244 c-18 -12 -20 -19 -11 -30 8 -10 16 -11 31 -3 22 12 52 4
43 -11 -3 -5 -14 -10 -24 -10 -28 0 -71 -39 -71 -65 0 -34 19 -44 86 -44 l60
1 -2 71 c-1 60 -5 74 -24 89 -27 22 -58 23 -88 2z m55 -121 c-14 -14 -19 -15
-29 -4 -11 10 -9 15 6 27 27 20 47 0 23 -23z"/>
<path d="M3277 1253 c-9 -2 -24 -17 -32 -33 -34 -66 -3 -140 60 -140 18 0 43
8 56 19 l23 18 -22 12 c-14 8 -22 8 -22 1 0 -16 -47 -12 -54 6 -9 23 -8 24 22
23 62 -4 72 0 72 26 0 49 -50 82 -103 68z m53 -48 c0 -9 -9 -15 -25 -15 -24 0
-32 10 -18 23 12 13 43 7 43 -8z"/>
<path d="M3409 1240 c0 -8 -2 -48 -3 -87 -1 -70 -1 -73 21 -73 13 0 23 5 24
10 1 6 2 33 2 61 2 37 7 55 19 63 24 15 28 7 30 -67 2 -63 3 -67 25 -67 22 0
23 3 23 73 0 39 -4 78 -9 86 -13 21 -131 22 -132 1z"/>
<path d="M3899 1233 c-1 -29 -1 -73 0 -119 1 -31 4 -35 23 -32 20 3 23 9 24
59 1 61 8 79 30 79 11 0 14 -16 14 -70 0 -68 1 -70 25 -70 24 0 25 2 25 64 0
50 4 65 16 70 25 9 28 2 29 -67 0 -56 2 -62 23 -65 21 -3 22 0 22 72 0 97 -17
118 -75 96 -15 -6 -32 -7 -38 -3 -7 5 -36 8 -64 8 -48 0 -53 -2 -54 -22z"/>
</g>
</svg>
